<svg xmlns="http://www.w3.org/2000/svg" viewBox="0 0 67.29 68.24"><defs><style>.cls-1{fill:#fff;}</style></defs><g id="Capa_2" data-name="Capa 2"><g id="OBJECTS"><g id="Fruta"><path class="cls-1" d="M30.17,68.24A36.11,36.11,0,0,1,0,38.07,36.11,36.11,0,0,1,30.17,68.24Z"/><path class="cls-1" d="M29.5,53.15a31.9,31.9,0,0,1-15.67-34.3A31.91,31.91,0,0,1,29.5,53.15Z"/><path class="cls-1" d="M37.79,53.15a31.89,31.89,0,0,0,15.67-34.3A31.92,31.92,0,0,0,37.79,53.15Z"/><path class="cls-1" d="M33.39,0a31.91,31.91,0,0,0,1.07,37.7A31.91,31.91,0,0,0,33.39,0Z"/><path class="cls-1" d="M37.13,68.24A36.08,36.08,0,0,1,67.29,38.07,36.11,36.11,0,0,1,37.13,68.24Z"/></g></g></g></svg>