<svg xmlns="http://www.w3.org/2000/svg" xmlns:xlink="http://www.w3.org/1999/xlink" viewBox="0 0 73.55 74.36"><defs><style>.cls-1{fill:none;}.cls-2{clip-path:url(#clip-path);}.cls-10,.cls-11,.cls-12,.cls-13,.cls-14,.cls-15,.cls-16,.cls-17,.cls-18,.cls-19,.cls-20,.cls-21,.cls-22,.cls-23,.cls-24,.cls-25,.cls-26,.cls-27,.cls-28,.cls-29,.cls-3,.cls-30,.cls-31,.cls-32,.cls-33,.cls-34,.cls-4,.cls-5,.cls-6,.cls-7,.cls-8,.cls-9{fill:#4d4d4d;}.cls-3{opacity:0;}.cls-4{opacity:0.03;}.cls-5{opacity:0.06;}.cls-6{opacity:0.1;}.cls-7{opacity:0.13;}.cls-8{opacity:0.16;}.cls-9{opacity:0.19;}.cls-10{opacity:0.23;}.cls-11{opacity:0.26;}.cls-12{opacity:0.29;}.cls-13{opacity:0.32;}.cls-14{opacity:0.35;}.cls-15{opacity:0.39;}.cls-16{opacity:0.42;}.cls-17{opacity:0.45;}.cls-18{opacity:0.48;}.cls-19{opacity:0.52;}.cls-20{opacity:0.55;}.cls-21{opacity:0.58;}.cls-22{opacity:0.61;}.cls-23{opacity:0.65;}.cls-24{opacity:0.68;}.cls-25{opacity:0.71;}.cls-26{opacity:0.74;}.cls-27{opacity:0.77;}.cls-28{opacity:0.81;}.cls-29{opacity:0.84;}.cls-30{opacity:0.87;}.cls-31{opacity:0.9;}.cls-32{opacity:0.94;}.cls-33{opacity:0.97;}.cls-35{fill:url(#linear-gradient);}.cls-36{fill:#fff;}</style><clipPath id="clip-path" transform="translate(-19.91 -19.09)"><rect id="up" class="cls-1" width="100" height="100"/></clipPath><linearGradient id="linear-gradient" x1="34.44" y1="190.63" x2="59.24" y2="165.84" gradientTransform="matrix(1, 0, 0, -1, 0, 224.5)" gradientUnits="userSpaceOnUse"><stop offset="0" stop-color="#ccc"/><stop offset="0.04" stop-color="#d6d6d6"/><stop offset="0.13" stop-color="#e1e1e1"/><stop offset="0.21" stop-color="#e5e5e5"/><stop offset="0.43" stop-color="#e5e5e5"/><stop offset="0.53" stop-color="#d9d9d9"/><stop offset="0.71" stop-color="#b9b9b9"/><stop offset="0.74" stop-color="#b3b3b3"/><stop offset="0.85" stop-color="#b7b7b7"/><stop offset="0.94" stop-color="#c2c2c2"/><stop offset="1" stop-color="#ccc"/></linearGradient></defs><g id="Capa_2" data-name="Capa 2"><g id="Layer_1" data-name="Layer 1"><g id="_3" data-name="3"><g class="cls-2"><path class="cls-3" d="M20.24,93.46s27-12.32,45.16-30.62c18.9-19,28.72-44,27.68-43.05-8.16,7.5-25.92,11-25.92,11-14.31,0-20.66,6.74-32.32,6.74-.08,12.24-8.43,12.65-8.2,34.87C26.64,72.35,27.36,86.14,20.24,93.46Z" transform="translate(-19.91 -19.09)"/><path class="cls-4" d="M20.24,93.44S47,81,65.22,62.7C84,43.78,94,18.91,93.08,19.78c-8.27,7.58-25.92,10.84-25.92,10.84-14.31,0-20.66,6.74-32.32,6.74-.08,12.25-8.43,12.65-8.2,34.87C26.64,72.23,27.36,86.12,20.24,93.44Z" transform="translate(-19.91 -19.09)"/><path class="cls-5" d="M20.24,93.42S46.83,80.86,65,62.56C83.74,43.74,93.92,19,93.08,19.77,84.7,27.43,67.16,30.5,67.16,30.5c-14.31,0-20.66,6.75-32.32,6.75-.08,12.24-8.43,12.64-8.2,34.86C26.64,72.11,27.36,86.1,20.24,93.42Z" transform="translate(-19.91 -19.09)"/><path class="cls-6" d="M20.24,93.39s26.41-12.67,44.61-31c18.62-18.72,29-43.34,28.23-42.66-8.5,7.73-25.92,10.62-25.92,10.62-14.31,0-20.66,6.75-32.32,6.75-.08,12.24-8.43,12.64-8.2,34.86C26.64,72,27.36,86.08,20.24,93.39Z" transform="translate(-19.91 -19.09)"/><path class="cls-7" d="M20.24,93.37S46.47,80.58,64.67,62.28C83.19,43.65,93.72,19.16,93.08,19.75c-8.64,7.78-25.92,10.51-25.92,10.51C52.85,30.26,46.5,37,34.84,37c-.08,12.24-8.43,12.64-8.2,34.86C26.64,71.87,27.36,86.06,20.24,93.37Z" transform="translate(-19.91 -19.09)"/><path class="cls-8" d="M20.24,93.35s26-12.91,44.24-31.21c18.43-18.53,29.15-42.89,28.6-42.4-8.79,7.81-25.92,10.41-25.92,10.41-14.31,0-20.66,6.74-32.32,6.74-.08,12.24-8.43,12.64-8.2,34.87C26.64,71.76,27.36,86,20.24,93.35Z" transform="translate(-19.91 -19.09)"/><path class="cls-9" d="M20.24,93.33S46.1,80.3,64.3,62,93.53,19.33,93.08,19.73C84.11,27.54,67.16,30,67.16,30c-14.31,0-20.66,6.74-32.32,6.74-.08,12.24-8.43,12.65-8.2,34.87C26.64,71.64,27.36,86,20.24,93.33Z" transform="translate(-19.91 -19.09)"/><path class="cls-10" d="M20.24,93.31S45.92,80.16,64.12,61.86s29.31-42.44,29-42.14c-9.21,7.74-25.92,10.19-25.92,10.19-14.31,0-20.66,6.74-32.32,6.74-.08,12.25-8.43,12.65-8.2,34.87C26.64,71.52,27.36,86,20.24,93.31Z" transform="translate(-19.91 -19.09)"/><path class="cls-11" d="M20.24,93.29S45.74,80,63.94,61.72s29.39-42.22,29.14-42c-9.57,7.51-25.92,10.08-25.92,10.08-14.31,0-20.66,6.75-32.32,6.75-.08,12.24-8.43,12.64-8.2,34.86C26.64,71.4,27.36,86,20.24,93.29Z" transform="translate(-19.91 -19.09)"/><path class="cls-12" d="M20.24,93.27S45.55,79.88,63.75,61.58c18-18.14,29.51-42,29.33-41.88-8.81,8.58-25.92,10-25.92,10-14.31,0-20.66,6.75-32.32,6.75-.08,12.24-8.43,12.64-8.2,34.86C26.64,71.28,27.36,86,20.24,93.27Z" transform="translate(-19.91 -19.09)"/><path class="cls-13" d="M20.24,93.24s25.13-13.5,43.33-31.8c17.94-18,29.59-41.73,29.51-41.76-8.88,8.71-25.92,9.87-25.92,9.87-14.31,0-20.66,6.75-32.32,6.75-.08,12.24-8.43,12.64-8.2,34.86C26.64,71.16,27.36,85.93,20.24,93.24Z" transform="translate(-19.91 -19.09)"/><path class="cls-14" d="M20.24,93.22s25-13.62,43.15-31.92C81.23,43.35,93.07,19.79,93.08,19.67c-9,8.83-25.92,9.77-25.92,9.77-14.31,0-20.66,6.74-32.32,6.74-.08,12.24-8.43,12.64-8.2,34.87C26.64,71.05,27.36,85.91,20.24,93.22Z" transform="translate(-19.91 -19.09)"/><path class="cls-15" d="M20.24,93.2s24.76-13.74,43-32C81,43.31,93,19.88,93.08,19.66c-9,9-25.92,9.66-25.92,9.66-14.31,0-20.66,6.74-32.32,6.74-.08,12.24-8.43,12.65-8.2,34.87C26.64,70.93,27.36,85.89,20.24,93.2Z" transform="translate(-19.91 -19.09)"/><path class="cls-16" d="M20.24,93.18S44.82,79.32,63,61C80.68,43.26,92.87,20,93.08,19.65,84,28.72,67.16,29.2,67.16,29.2c-14.31,0-20.66,6.74-32.32,6.74-.08,12.25-8.43,12.65-8.2,34.87C26.64,70.81,27.36,85.86,20.24,93.18Z" transform="translate(-19.91 -19.09)"/><path class="cls-17" d="M20.24,93.16s24.4-14,42.6-32.28C80.4,43.22,92.78,20.06,93.08,19.64c-9.17,9.19-25.92,9.44-25.92,9.44-14.31,0-20.66,6.75-32.32,6.75-.08,12.24-8.43,12.64-8.2,34.86C26.64,70.69,27.36,85.84,20.24,93.16Z" transform="translate(-19.91 -19.09)"/><path class="cls-18" d="M20.24,93.14S44.46,79,62.66,60.74c17.46-17.56,30-40.6,30.42-41.11C83.84,28.94,67.16,29,67.16,29c-14.31,0-20.66,6.75-32.32,6.75-.08,12.24-8.43,12.64-8.2,34.86C26.64,70.57,27.36,85.82,20.24,93.14Z" transform="translate(-19.91 -19.09)"/><path class="cls-19" d="M20.24,93.11s24-14.21,42.23-32.51c17.37-17.46,30.12-40.37,30.61-41-9.32,9.43-25.92,9.23-25.92,9.23-14.31,0-20.66,6.74-32.32,6.74-.08,12.24-8.43,12.64-8.2,34.86C26.64,70.45,27.36,85.8,20.24,93.11Z" transform="translate(-19.91 -19.09)"/><path class="cls-20" d="M20.24,93.09S44.09,78.76,62.29,60.46c17.27-17.37,30.2-40.14,30.79-40.85-9.39,9.55-25.92,9.12-25.92,9.12-14.31,0-20.66,6.74-32.32,6.74-.08,12.24-8.43,12.64-8.2,34.87C26.64,70.34,27.36,85.78,20.24,93.09Z" transform="translate(-19.91 -19.09)"/><path class="cls-21" d="M20.24,93.07S43.91,78.62,62.11,60.32c17.17-17.27,30.28-39.91,31-40.72-9.46,9.67-25.92,9-25.92,9-14.31,0-20.66,6.74-32.32,6.74-.08,12.24-8.43,12.65-8.2,34.87C26.64,70.22,27.36,85.76,20.24,93.07Z" transform="translate(-19.91 -19.09)"/><path class="cls-22" d="M20.24,93.05S43.72,78.48,61.93,60.18C79,43,92.3,20.49,93.08,19.59c-9.53,9.79-25.92,8.9-25.92,8.9-14.31,0-20.66,6.75-32.32,6.75-.08,12.24-8.43,12.64-8.2,34.86C26.64,70.1,27.36,85.74,20.24,93.05Z" transform="translate(-19.91 -19.09)"/><path class="cls-23" d="M20.24,93s23.3-14.69,41.5-33C78.72,43,92.2,20.58,93.08,19.58c-9.61,9.91-25.92,8.79-25.92,8.79-14.31,0-20.66,6.75-32.32,6.75-.08,12.24-8.43,12.64-8.2,34.86C26.64,70,27.36,85.71,20.24,93Z" transform="translate(-19.91 -19.09)"/><path class="cls-24" d="M20.24,93S43.36,78.2,61.56,59.9c16.89-17,30.55-39.23,31.52-40.33-9.68,10-25.92,8.68-25.92,8.68C52.85,28.25,46.5,35,34.84,35c-.08,12.24-8.43,12.64-8.2,34.86C26.64,69.86,27.36,85.69,20.24,93Z" transform="translate(-19.91 -19.09)"/><path class="cls-25" d="M20.24,93S43.18,78.06,61.38,59.76c16.79-16.88,30.63-39,31.7-40.2-9.75,10.15-25.92,8.58-25.92,8.58-14.31,0-20.66,6.74-32.32,6.74-.08,12.24-8.43,12.64-8.2,34.87C26.64,69.75,27.36,85.67,20.24,93Z" transform="translate(-19.91 -19.09)"/><path class="cls-26" d="M20.24,93s22.75-15,41-33.34c16.7-16.79,30.72-38.78,31.89-40.08C83.26,29.82,67.16,28,67.16,28c-14.31,0-20.66,6.74-32.32,6.74C34.76,47,26.41,47.4,26.64,69.63,26.64,69.63,27.36,85.65,20.24,93Z" transform="translate(-19.91 -19.09)"/><path class="cls-27" d="M20.24,92.94S42.81,77.78,61,59.48c16.6-16.69,30.81-38.55,32.07-39.95-9.9,10.4-25.92,8.37-25.92,8.37-14.31,0-20.66,6.74-32.32,6.74-.08,12.24-8.43,12.65-8.2,34.87C26.64,69.51,27.36,85.63,20.24,92.94Z" transform="translate(-19.91 -19.09)"/><path class="cls-28" d="M20.24,92.92S42.63,77.64,60.83,59.34C77.33,42.75,91.72,21,93.08,19.52c-10,10.53-25.92,8.26-25.92,8.26-14.31,0-20.66,6.75-32.32,6.75-.08,12.24-8.43,12.64-8.2,34.86C26.64,69.39,27.36,85.61,20.24,92.92Z" transform="translate(-19.91 -19.09)"/><path class="cls-29" d="M20.24,92.9S42.45,77.5,60.65,59.2c16.4-16.5,31-38.09,32.43-39.69-10,10.65-25.92,8.15-25.92,8.15-14.31,0-20.66,6.75-32.32,6.75-.08,12.24-8.43,12.64-8.2,34.86C26.64,69.27,27.36,85.58,20.24,92.9Z" transform="translate(-19.91 -19.09)"/><path class="cls-30" d="M20.24,92.88s22-15.52,40.22-33.82C76.77,42.66,91.53,21.2,93.08,19.5c-10.11,10.77-25.92,8-25.92,8-14.31,0-20.66,6.75-32.32,6.75-.08,12.24-8.43,12.64-8.2,34.86C26.64,69.15,27.36,85.56,20.24,92.88Z" transform="translate(-19.91 -19.09)"/><path class="cls-31" d="M20.24,92.86s21.84-15.64,40-33.94c16.21-16.3,31.15-37.64,32.8-39.43-10.19,10.89-25.92,7.94-25.92,7.94-14.31,0-20.66,6.74-32.32,6.74-.08,12.24-8.43,12.64-8.2,34.87C26.64,69,27.36,85.54,20.24,92.86Z" transform="translate(-19.91 -19.09)"/><path class="cls-32" d="M20.24,92.83s21.66-15.75,39.86-34c16.12-16.21,31.24-37.41,33-39.3-10.26,11-25.92,7.83-25.92,7.83-14.31,0-20.66,6.74-32.32,6.74-.08,12.24-8.43,12.65-8.2,34.87C26.64,68.92,27.36,85.52,20.24,92.83Z" transform="translate(-19.91 -19.09)"/><path class="cls-33" d="M20.24,92.81A397.75,397.75,0,0,0,59.91,58.64c16-16.11,31.33-37.18,33.17-39.17C82.75,30.6,67.16,27.19,67.16,27.19c-14.31,0-20.66,6.74-32.32,6.74-.08,12.25-8.43,12.65-8.2,34.87C26.64,68.8,27.36,85.5,20.24,92.81Z" transform="translate(-19.91 -19.09)"/><path class="cls-34" d="M20.24,92.79A418.23,418.23,0,0,0,59.73,58.5c15.93-16,31.42-36.95,33.35-39-10.4,11.25-25.92,7.61-25.92,7.61-14.31,0-20.66,6.75-32.32,6.75-.08,12.24-8.43,12.64-8.2,34.86C26.64,68.68,27.36,85.48,20.24,92.79Z" transform="translate(-19.91 -19.09)"/><path class="cls-35" d="M19.91,93.13A452.47,452.47,0,0,0,59.4,58.5c18.9-19,35.06-40.34,34-39.37-8.69,8-26.59,7.94-26.59,7.94-14.3,0-20.65,6.75-32.32,6.75-.07,12.24-8.42,13-8.2,35.19C26.3,69,26.54,85.19,19.91,93.13Z" transform="translate(-19.91 -19.09)"/><path class="cls-36" d="M21.63,91.43c5.58-8,4.67-22.75,4.67-22.75-.22-22.22,8.13-22.62,8.2-34.86,11.67,0,18-6.75,32.32-6.75,0,0,16.63-.1,25.28-6.54.81-1.06,1.16-1.24,1-1.07-8.16,7.5-26.59,7.28-26.59,7.28-14.31,0-20.66,6.74-32.32,6.74-.08,12.24-8.42,12.65-8.2,34.87,0,0,1.06,17.46-6.06,24.78A10.26,10.26,0,0,1,21.63,91.43Z" transform="translate(-19.91 -19.09)"/></g></g></g></g></svg>