<svg xmlns="http://www.w3.org/2000/svg" viewBox="0 0 410.73 97.59"><defs><style>.cls-1{fill:red;}.cls-2{fill:#6eabfb;}.cls-3,.cls-4{fill:#edb83e;}.cls-4{font-size:54px;font-family:Montserrat-Black, Montserrat;font-weight:800;}.cls-5{letter-spacing:-0.01em;}.cls-6{fill:#5392fb;letter-spacing:0em;}.cls-7{font-size:8.84px;font-family:Montserrat-Medium, Montserrat;font-weight:500;letter-spacing:0.3em;}.cls-8{letter-spacing:0.29em;}.cls-9{letter-spacing:0.3em;}.cls-10{letter-spacing:0.29em;}.cls-11{letter-spacing:0.3em;}.cls-12{letter-spacing:0.25em;}.cls-13{letter-spacing:0.29em;}.cls-14{letter-spacing:0.3em;}.cls-15{letter-spacing:0.29em;}.cls-16{letter-spacing:0.29em;}</style></defs><g id="Capa_2" data-name="Capa 2"><g id="OBJECTS"><g id="Logo_Horizontal" data-name="Logo Horizontal"><path class="cls-1" d="M64.76,97.59S36,75.41,4.92,82.38L8,69.79a20.61,20.61,0,0,1,5.87,1l-1.27,6.86s28.17-3.53,52.14,20"/><path class="cls-2" d="M64.76,97.59S39.05,66.4,0,66.4L21.89,2.27a43.55,43.55,0,0,1,6.87,2.18L10.17,58.81s39,10.89,54.59,38.78"/><path class="cls-3" d="M64.76,97.59C52,61.09,16.63,53.37,16.63,53.37L34.84,0a48.61,48.61,0,0,1,7.82,3.08,46.69,46.69,0,0,1,10.46,7.1l-3,8A14.19,14.19,0,0,0,38.88,11l-13,36.88S54.46,54,64.76,97.59Z"/><path class="cls-1" d="M83.57,97.59s28.76-22.18,59.83-15.21l-3.1-12.59a20.52,20.52,0,0,0-5.86,1l1.27,6.86s-28.18-3.53-52.14,20"/><path class="cls-2" d="M83.57,97.59s25.7-31.19,64.75-31.19L126.43,2.27a43.55,43.55,0,0,0-6.87,2.18l18.59,54.36s-39,10.89-54.58,38.78"/><path class="cls-3" d="M83.57,97.59c12.74-36.5,48.13-44.22,48.13-44.22L113.48,0a48.13,48.13,0,0,0-7.81,3.08,46.46,46.46,0,0,0-10.46,7.1l3,8A14.17,14.17,0,0,1,109.44,11l13,36.88S93.87,54,83.57,97.59Z"/><path class="cls-1" d="M70.68,67A35.77,35.77,0,0,1,40.52,37.38,35.77,35.77,0,0,1,70.68,67Z"/><path class="cls-2" d="M70,52.19A31.14,31.14,0,0,1,54.34,18.51,31.12,31.12,0,0,1,70,52.19Z"/><path class="cls-2" d="M78.31,52.19A31.13,31.13,0,0,0,94,18.51,31.13,31.13,0,0,0,78.31,52.19Z"/><path class="cls-3" d="M73.91,0A30.87,30.87,0,0,0,75,37,30.87,30.87,0,0,0,73.91,0Z"/><path class="cls-1" d="M77.64,67a35.77,35.77,0,0,1,30.17-29.62A35.78,35.78,0,0,1,77.64,67Z"/><text class="cls-4" transform="translate(162.57 52.19) scale(1.02 1)"><tspan class="cls-5">P</tspan><tspan x="39.58" y="0">RO</tspan><tspan class="cls-6" x="125.61" y="0">SUR</tspan></text><text class="cls-7" transform="translate(165.7 67) scale(1.07 1)">IN<tspan class="cls-8" x="15.22" y="0">S</tspan><tspan class="cls-9" x="23.27" y="0">TI</tspan><tspan class="cls-10" x="36.5" y="0">TU</tspan><tspan class="cls-8" x="53.74" y="0">T</tspan><tspan class="cls-11" x="61.49" y="0">O </tspan><tspan class="cls-12" x="76.6" y="0">P</tspan><tspan class="cls-9" x="85.23" y="0">ARA EL DESARROL</tspan><tspan class="cls-13" x="210.98" y="0">L</tspan><tspan class="cls-11" x="218.76" y="0">O</tspan><tspan class="cls-9"><tspan x="6.46" y="10.6">Y </tspan><tspan class="cls-14" x="19.86" y="10.6">L</tspan><tspan x="27.78" y="10.6">A </tspan><tspan class="cls-15" x="41.93" y="10.6">C</tspan><tspan class="cls-11" x="50.84" y="10.6">OM</tspan><tspan class="cls-8" x="72" y="10.6">P</tspan><tspan x="80.94" y="10.6">ETIT</tspan><tspan class="cls-16" x="110.58" y="10.6">I</tspan><tspan class="cls-15" x="115.91" y="10.6">V</tspan><tspan x="124.72" y="10.6">I</tspan><tspan class="cls-8" x="130.11" y="10.6">D</tspan><tspan x="139.97" y="10.6">AD DEL SUR</tspan></tspan></text></g></g></g></svg>