<svg xmlns="http://www.w3.org/2000/svg" viewBox="0 0 329.73 72.6"><defs><style>.cls-1,.cls-2{fill:#fff;}.cls-2{font-size:48px;font-family:Montserrat-Black, Montserrat;font-weight:800;}.cls-3{letter-spacing:-0.01em;}</style></defs><g id="Capa_2" data-name="Capa 2"><g id="OBJECTS"><g id="Logo_Horizontal_Blanco" data-name="Logo Horizontal Blanco"><path class="cls-1" d="M47.3,72.6s-21-16.5-43.7-11.32l2.26-9.36a14.68,14.68,0,0,1,4.28.74l-.92,5.1S29.79,55.13,47.3,72.6"/><path class="cls-1" d="M47.3,72.6S28.52,49.4,0,49.4L16,1.69a31.74,31.74,0,0,1,5,1.62L7.43,43.75s28.5,8.1,39.87,28.85"/><path class="cls-1" d="M47.3,72.6C38,45.45,12.15,39.7,12.15,39.7L25.45,0a35.59,35.59,0,0,1,5.71,2.29A34.15,34.15,0,0,1,38.8,7.58l-2.22,6A10.36,10.36,0,0,0,28.4,8.17L18.92,35.61S39.78,40.2,47.3,72.6Z"/><path class="cls-1" d="M61,72.6s21-16.5,43.7-11.32l-2.26-9.36a14.72,14.72,0,0,0-4.29.74l.93,5.1S78.54,55.13,61,72.6"/><path class="cls-1" d="M61,72.6s18.77-23.2,47.3-23.2l-16-47.71a31.74,31.74,0,0,0-5,1.62l13.58,40.44S72.41,51.85,61,72.6"/><path class="cls-1" d="M61,72.6c9.3-27.15,35.15-32.9,35.15-32.9L82.89,0a34.86,34.86,0,0,0-5.71,2.29,34.15,34.15,0,0,0-7.64,5.29l2.22,6a10.36,10.36,0,0,1,8.18-5.37l9.48,27.44S68.56,40.2,61,72.6Z"/><path class="cls-1" d="M51.63,49.84a26.38,26.38,0,0,1-22-22A26.38,26.38,0,0,1,51.63,49.84Z"/><path class="cls-1" d="M51.14,38.82a23.31,23.31,0,0,1-11.45-25A23.3,23.3,0,0,1,51.14,38.82Z"/><path class="cls-1" d="M57.2,38.82a23.29,23.29,0,0,0,11.44-25A23.31,23.31,0,0,0,57.2,38.82Z"/><path class="cls-1" d="M54,0a23.33,23.33,0,0,0,.78,27.54A23.31,23.31,0,0,0,54,0Z"/><path class="cls-1" d="M56.71,49.84a26.35,26.35,0,0,1,22-22A26.35,26.35,0,0,1,56.71,49.84Z"/><text class="cls-2" transform="translate(113.16 49.84)"><tspan class="cls-3">P</tspan><tspan x="35.18" y="0">ROSUR</tspan></text></g></g></g></svg>