<svg xmlns="http://www.w3.org/2000/svg" viewBox="0 0 148.32 99.39"><defs><style>.cls-1{fill:red;}.cls-2{fill:#6eabfb;}.cls-3{fill:#edb83e;}</style></defs><g id="Capa_2" data-name="Capa 2"><g id="OBJECTS"><path class="cls-1" d="M64.76,99.39S36,76.8,4.92,83.9L8,71.08a20.24,20.24,0,0,1,5.87,1l-1.27,7s28.17-3.6,52.14,20.31"/><path class="cls-2" d="M64.76,99.39S39.05,67.63,0,67.63L21.89,2.31a43.36,43.36,0,0,1,6.87,2.23L10.17,59.9S49.19,71,64.76,99.39"/><path class="cls-3" d="M64.76,99.39c-12.74-37.17-48.13-45-48.13-45L34.84,0a48.66,48.66,0,0,1,7.82,3.13,47.32,47.32,0,0,1,10.46,7.24l-3,8.17a14.24,14.24,0,0,0-11.2-7.36l-13,37.57S54.46,55,64.76,99.39Z"/><path class="cls-1" d="M83.57,99.39S112.33,76.8,143.4,83.9l-3.1-12.82a20.15,20.15,0,0,0-5.86,1l1.27,7s-28.18-3.6-52.14,20.31"/><path class="cls-2" d="M83.57,99.39s25.7-31.76,64.75-31.76L126.43,2.31a43.36,43.36,0,0,0-6.87,2.23L138.15,59.9S99.13,71,83.57,99.39"/><path class="cls-3" d="M83.57,99.39c12.74-37.17,48.13-45,48.13-45L113.48,0a48.17,48.17,0,0,0-7.81,3.13,47.08,47.08,0,0,0-10.46,7.24l3,8.17a14.21,14.21,0,0,1,11.19-7.36l13,37.57S93.87,55,83.57,99.39Z"/><path class="cls-1" d="M70.68,68.24A36.1,36.1,0,0,1,40.52,38.07,36.1,36.1,0,0,1,70.68,68.24Z"/><path class="cls-2" d="M70,53.15a31.91,31.91,0,0,1-15.67-34.3A31.89,31.89,0,0,1,70,53.15Z"/><path class="cls-2" d="M78.31,53.15A31.9,31.9,0,0,0,94,18.85,31.91,31.91,0,0,0,78.31,53.15Z"/><path class="cls-3" d="M73.91,0A31.91,31.91,0,0,0,75,37.7,31.91,31.91,0,0,0,73.91,0Z"/><path class="cls-1" d="M77.64,68.24a36.09,36.09,0,0,1,30.17-30.17A36.11,36.11,0,0,1,77.64,68.24Z"/></g></g></svg>