<svg xmlns="http://www.w3.org/2000/svg" viewBox="0 0 330 79.86"><defs><style>.cls-1,.cls-2,.cls-4{fill:#fff;}.cls-2{font-size:44.19px;font-family:Montserrat-Black, Montserrat;font-weight:800;}.cls-3{letter-spacing:-0.01em;}.cls-4{font-size:7.23px;font-family:Montserrat-Medium, Montserrat;font-weight:500;letter-spacing:0.3em;}.cls-5{letter-spacing:0.29em;}.cls-6{letter-spacing:0.29em;}.cls-7{letter-spacing:0.3em;}.cls-8{letter-spacing:0.26em;}.cls-9{letter-spacing:0.3em;}.cls-10{letter-spacing:0.29em;}.cls-11{letter-spacing:0.3em;}.cls-12{letter-spacing:0.29em;}.cls-13{letter-spacing:0.29em;}.cls-14{letter-spacing:0.28em;}</style></defs><g id="Capa_2" data-name="Capa 2"><g id="OBJECTS"><g id="Logo_Horizontal_Completo" data-name="Logo Horizontal Completo"><path class="cls-1" d="M52,79.86S28.92,61.71,4,67.41l2.49-10.3a16.22,16.22,0,0,1,4.71.81l-1,5.62S32.77,60.64,52,79.86"/><path class="cls-1" d="M52,79.86S31.38,54.34,0,54.34L17.59,1.86a34.45,34.45,0,0,1,5.52,1.79L8.17,48.12S39.52,57,52,79.86"/><path class="cls-1" d="M52,79.86C41.79,50,13.36,43.67,13.36,43.67L28,0A38.19,38.19,0,0,1,42.68,8.33L40.23,14.9a11.41,11.41,0,0,0-9-5.92L20.81,39.17S43.75,44.21,52,79.86Z"/><path class="cls-1" d="M67.14,79.86s23.11-18.15,48.08-12.45l-2.49-10.3a16.31,16.31,0,0,0-4.72.81l1,5.62S86.4,60.64,67.14,79.86"/><path class="cls-1" d="M67.14,79.86s20.66-25.52,52-25.52L101.58,1.86a34.45,34.45,0,0,0-5.52,1.79L111,48.12S79.65,57,67.14,79.86"/><path class="cls-1" d="M67.14,79.86C77.38,50,105.81,43.67,105.81,43.67L91.18,0A38.19,38.19,0,0,0,76.49,8.33l2.45,6.57a11.43,11.43,0,0,1,9-5.92L98.36,39.17S75.42,44.21,67.14,79.86Z"/><path class="cls-1" d="M56.79,54.82A29,29,0,0,1,32.55,30.59,29,29,0,0,1,56.79,54.82Z"/><path class="cls-1" d="M56.25,42.71A25.65,25.65,0,0,1,43.66,15.14,25.65,25.65,0,0,1,56.25,42.71Z"/><path class="cls-1" d="M62.92,42.71A25.65,25.65,0,0,0,75.51,15.14,25.65,25.65,0,0,0,62.92,42.71Z"/><path class="cls-1" d="M59.38,0a25.64,25.64,0,0,0,.86,30.29A25.64,25.64,0,0,0,59.38,0Z"/><path class="cls-1" d="M62.38,54.82A29,29,0,0,1,86.62,30.59,29,29,0,0,1,62.38,54.82Z"/><text class="cls-2" transform="translate(130.62 42.71)"><tspan class="cls-3">P</tspan><tspan x="32.39" y="0">ROSUR</tspan></text><text class="cls-4" transform="translate(133.14 54.82) scale(1.05 1)">IN<tspan class="cls-5" x="12.45" y="0">S</tspan><tspan x="19.04" y="0">TI</tspan><tspan class="cls-6" x="29.86" y="0">TU</tspan><tspan class="cls-5" x="43.98" y="0">T</tspan><tspan class="cls-7" x="50.32" y="0">O </tspan><tspan class="cls-8" x="62.68" y="0">P</tspan><tspan class="cls-9" x="69.74" y="0">ARA EL DESARROL</tspan><tspan class="cls-10" x="172.64" y="0">L</tspan><tspan class="cls-9" x="179.01" y="0">O</tspan><tspan x="5.29" y="8.68">Y </tspan><tspan class="cls-11" x="16.25" y="8.68">L</tspan><tspan class="cls-9" x="22.73" y="8.68">A </tspan><tspan class="cls-12" x="34.31" y="8.68">C</tspan><tspan class="cls-9" x="41.6" y="8.68">OM</tspan><tspan class="cls-5" x="58.92" y="8.68">P</tspan><tspan class="cls-9" x="66.24" y="8.68">ETIT</tspan><tspan class="cls-13" x="90.49" y="8.68">I</tspan><tspan class="cls-14" x="94.85" y="8.68">V</tspan><tspan class="cls-7" x="102.06" y="8.68">I</tspan><tspan class="cls-5" x="106.47" y="8.68">D</tspan><tspan class="cls-9" x="114.54" y="8.68">AD DEL SUR</tspan></text></g></g></g></svg>